{"title":"Some Kind of Hate 2015 HC SUBS WEB-DL MooSeKnUcKle RG","uid":12399998,"size":751351565,"categoryP":"video","categoryS":"movies","magnet":"?xt=urn:btih:2cc4560ae86fa06370e56409b539811ac5a7ecb7&amp;dn=Some+Kind+of+Hate+2015+HC+SUBS+WEB-DL+MooSeKnUcKle+RG&amp;tr=udp%3A%2F%2Ftracker.openbittorrent.com%3A80&amp;tr=udp%3A%2F%2Fopen.demonii.com%3A1337&amp;tr=udp%3A%2F%2Ftracker.coppersurfer.tk%3A6969&amp;tr=udp%3A%2F%2Fexodus.desync.com%3A6969","seeders":8,"leechers":3,"uploader":"xxxlavalxxx","files":15,"time":1442009467,"description":" &lt;a href=&quot;http://extraimago.com/image/mfB&quot; rel=&quot;nofollow&quot; target=&quot;_NEW&quot;&gt;http://extraimago.com/image/mfB&lt;/a&gt;\n &lt;a href=&quot;\nhttp://www.imdb.com/title/tt3698558/&quot; rel=&quot;nofollow&quot; target=&quot;_NEW&quot;&gt;\nhttp://www.imdb.com/title/tt3698558/&lt;/a&gt;\n\n\nA bullied teenager is sent to a reform school where he accidentally summons the spirit of a girl, herself a victim of bullying, who takes vengeance on his tormentors.\n\nDirector: Adam Egypt Mortimer\nWriters: Brian DeLeeuw (screenplay), Adam Egypt Mortimer (screenplay)\nStars: Maestro Harrell, Grace Phipps, Spencer Breslin \nGenres: Horror\nCountry: USA\nLanguage: English\n\n\nGeneral\nComplete name                            : Some Kind of Hate 2015 HC SUBS WEB-DL MooSeKnUcKle RG\nFormat                                   : MPEG-4\nFormat profile                           : Base Media\nCodec ID                                 : isom\nFile size                                : 699 MiB\nDuration                                 : 1h 19mn\nOverall bit rate mode                    : Variable\nOverall bit rate                         : 1 234 Kbps\nWriting application                      : Lavf56.40.101\n\nVideo\nID                                       : 1\nFormat                                   : AVC\nFormat/Info                              : Advanced Video Codec\nFormat profile                           : &lt;a class=&quot;__cf_email__&quot; href=&quot;/cdn-cgi/l/email-protection&quot; data-cfemail=&quot;6c24050b042c205f425d&quot;&gt;[email&amp;#160;protected]&lt;/a&gt;&lt;script data-cfhash='f9e31' type=&quot;text/javascript&quot;&gt;\n/* &lt;![CDATA[ */!function(){try{var t=&quot;currentScript&quot;in document?document.currentScript:function(){for(var t=document.getElementsByTagName(&quot;script&quot;),e=t.length;e--;)if(t[e].getAttribute(&quot;data-cfhash&quot;))return t[e]}();if(t&amp;&amp;t.previousSibling){var e,r,n,i,c=t.previousSibling,a=c.getAttribute(&quot;data-cfemail&quot;);if(a){for(e=&quot;&quot;,r=parseInt(a.substr(0,2),16),n=2;a.length-n;n+=2)i=parseInt(a.substr(n,2),16)^r,e+=String.fromCharCode(i);e=document.createTextNode(e),c.parentNode.replaceChild(e,c)}t.parentNode.removeChild(t);}}catch(u){}}()/* ]]&gt; */&lt;/script&gt;\nFormat settings, CABAC                   : Yes\nFormat settings, ReFrames                : 4 frames\nCodec ID                                 : avc1\nCodec ID/Info                            : Advanced Video Coding\nDuration                                 : 1h 19mn\nBit rate                                 : 1 151 Kbps\nWidth                                    : 1 248 pixels\nHeight                                   : 528 pixels\nDisplay aspect ratio                     : 2.35:1\nFrame rate mode                          : Constant\nFrame rate                               : 30.000 fps\nColor space                              : YUV\nChroma subsampling                       : 4:2:0\nBit depth                                : 8 bits\nScan type                                : Progressive\nBits/(Pixel*Frame)                       : 0.058\nStream size                              : 649 MiB (93%)\nWriting library                          : x264 core 119 r2106 07efeb4\n\n\nAudio\nID                                       : 2\nFormat                                   : AAC\nFormat/Info                              : Advanced Audio Codec\nFormat profile                           : HE-AAC / LC\nCodec ID                                 : 40\nDuration                                 : 1h 19mn\nBit rate mode                            : Variable\nBit rate                                 : 82.0 Kbps\nMaximum bit rate                         : 100 Kbps\nChannel(s)                               : 2 channels\nChannel positions                        : Front: L R\nSampling rate                            : 48.0 KHz / 24.0 KHz\nCompression mode                         : Lossy\nStream size                              : 46.4 MiB (7%)\nLanguage                                 : English\n\nGREETS\n,MenaceIISociety,jiinx,SiMPLE,\n,VAiN,ACAB,Hive,CM8,Unevano,SeeN,Limey,TED,mrtoke09, jamoi ,smittyman,DS,choas,H3LL2P4Y\n\n &lt;a href=&quot;\nhttp://extraimago.com/image/mfC&quot; rel=&quot;nofollow&quot; target=&quot;_NEW&quot;&gt;\nhttp://extraimago.com/image/mfC&lt;/a&gt; &lt;a href=&quot;\nhttp://extraimago.com/image/mfY&quot; rel=&quot;nofollow&quot; target=&quot;_NEW&quot;&gt;\nhttp://extraimago.com/image/mfY&lt;/a&gt; &lt;a href=&quot;\nhttp://extraimago.com/image/mfp&quot; rel=&quot;nofollow&quot; target=&quot;_NEW&quot;&gt;\nhttp://extraimago.com/image/mfp&lt;/a&gt; &lt;a href=&quot;\nhttp://extraimago.com/image/mfr&quot; rel=&quot;nofollow&quot; target=&quot;_NEW&quot;&gt;\nhttp://extraimago.com/image/mfr&lt;/a&gt; &lt;a href=&quot;\nhttp://extraimago.com/image/mfG&quot; rel=&quot;nofollow&quot; target=&quot;_NEW&quot;&gt;\nhttp://extraimago.com/image/mfG&lt;/a&gt; &lt;a href=&quot;\nhttp://extraimago.com/image/mfP&quot; rel=&quot;nofollow&quot; target=&quot;_NEW&quot;&gt;\nhttp://extraimago.com/image/mfP&lt;/a&gt; &lt;a href=&quot;\nhttp://extraimago.com/image/mfX&quot; rel=&quot;nofollow&quot; target=&quot;_NEW&quot;&gt;\nhttp://extraimago.com/image/mfX&lt;/a&gt; &lt;a href=&quot;\nhttp://extraimago.com/image/mfg&quot; rel=&quot;nofollow&quot; target=&quot;_NEW&quot;&gt;\nhttp://extraimago.com/image/mfg&lt;/a&gt; &lt;a href=&quot;\nhttp://extraimago.com/image/mf5&quot; rel=&quot;nofollow&quot; target=&quot;_NEW&quot;&gt;\nhttp://extraimago.com/image/mf5&lt;/a&gt; &lt;a href=&quot;\nhttp://extraimago.com/image/mfD&quot; rel=&quot;nofollow&quot; target=&quot;_NEW&quot;&gt;\nhttp://extraimago.com/image/mfD&lt;/a&gt;","torrent":{"xt":"urn:btih:2cc4560ae86fa06370e56409b539811ac5a7ecb7","amp;dn":"Some+Kind+of+Hate+2015+HC+SUBS+WEB-DL+MooSeKnUcKle+RG","amp;tr":["udp%3A%2F%2Ftracker.openbittorrent.com%3A80","udp%3A%2F%2Fopen.demonii.com%3A1337","udp%3A%2F%2Ftracker.coppersurfer.tk%3A6969","udp%3A%2F%2Fexodus.desync.com%3A6969"],"infoHash":"2cc4560ae86fa06370e56409b539811ac5a7ecb7","infoHashBuffer":{"type":"Buffer","data":[44,196,86,10,232,111,160,99,112,229,100,9,181,57,129,26,197,167,236,183]},"announce":[],"urlList":[]}}